<svg id="Layer_1" data-name="Layer 1" xmlns="http://www.w3.org/2000/svg" xmlns:xlink="http://www.w3.org/1999/xlink" viewBox="0 0 192.75 186.31"><defs><clipPath id="clip-path" transform="translate(-10.25 -10.88)"><ellipse id="SVGID" cx="167.68" cy="121.62" rx="14.66" ry="8.14" style="fill:none;stroke:#9b948e;stroke-miterlimit:10"/></clipPath><clipPath id="clip-path-2" transform="translate(-10.25 -10.88)"><ellipse id="SVGID-2" data-name="SVGID" cx="150.94" cy="98.01" rx="14.66" ry="8.14" style="fill:none;stroke:#9b948e;stroke-miterlimit:10"/></clipPath><clipPath id="clip-path-3" transform="translate(-10.25 -10.88)"><ellipse id="SVGID-3" data-name="SVGID" cx="111.84" cy="149.09" rx="14.66" ry="8.14" style="fill:none;stroke:#8e9698;stroke-miterlimit:10"/></clipPath><clipPath id="clip-path-4" transform="translate(-10.25 -10.88)"><ellipse id="SVGID-4" data-name="SVGID" cx="84.69" cy="142.94" rx="14.66" ry="8.14" style="fill:none;stroke:#949891;stroke-miterlimit:10"/></clipPath><clipPath id="clip-path-5" transform="translate(-10.25 -10.88)"><ellipse id="SVGID-5" data-name="SVGID" cx="79.68" cy="157.23" rx="14.66" ry="8.14" style="fill:none;stroke:#8e9698;stroke-miterlimit:10"/></clipPath><clipPath id="clip-path-6" transform="translate(-10.25 -10.88)"><ellipse id="SVGID-6" data-name="SVGID" cx="120.93" cy="174.76" rx="14.66" ry="8.14" style="fill:none;stroke:#8e9698;stroke-miterlimit:10"/></clipPath><clipPath id="clip-path-7" transform="translate(-10.25 -10.88)"><ellipse id="SVGID-7" data-name="SVGID" cx="105.27" cy="163.66" rx="14.66" ry="8.14" style="fill:none;stroke:#8e9698;stroke-miterlimit:10"/></clipPath><clipPath id="clip-path-8" transform="translate(-10.25 -10.88)"><ellipse id="SVGID-8" data-name="SVGID" cx="82.95" cy="171.81" rx="14.66" ry="8.14" style="fill:none;stroke:#8e9698;stroke-miterlimit:10"/></clipPath><clipPath id="clip-path-9" transform="translate(-10.25 -10.88)"><ellipse id="SVGID-9" data-name="SVGID" cx="97.91" cy="183.07" rx="14.66" ry="8.14" style="fill:none;stroke:#8e9698;stroke-miterlimit:10"/></clipPath><clipPath id="clip-path-10" transform="translate(-10.25 -10.88)"><ellipse id="SVGID-10" data-name="SVGID" cx="131.7" cy="161.14" rx="14.66" ry="8.14" style="fill:none;stroke:#8e9698;stroke-miterlimit:10"/></clipPath><clipPath id="clip-path-11" transform="translate(-10.25 -10.88)"><ellipse id="SVGID-11" data-name="SVGID" cx="125.44" cy="94.25" rx="14.66" ry="8.14" style="fill:none;stroke:#949891;stroke-miterlimit:10"/></clipPath><clipPath id="clip-path-12" transform="translate(-10.25 -10.88)"><ellipse id="SVGID-12" data-name="SVGID" cx="99.17" cy="94.25" rx="14.66" ry="8.14" style="fill:none;stroke:#949891;stroke-miterlimit:10"/></clipPath><clipPath id="clip-path-13" transform="translate(-10.25 -10.88)"><ellipse id="SVGID-13" data-name="SVGID" cx="86.17" cy="81.42" rx="14.66" ry="8.14" style="fill:none;stroke:#949891;stroke-miterlimit:10"/></clipPath><clipPath id="clip-path-14" transform="translate(-10.25 -10.88)"><ellipse id="SVGID-14" data-name="SVGID" cx="114" cy="81.12" rx="14.66" ry="8.14" style="fill:#949499;stroke:#949891;stroke-miterlimit:10"/></clipPath><clipPath id="clip-path-15" transform="translate(-10.25 -10.88)"><ellipse id="SVGID-15" data-name="SVGID" cx="131.7" cy="71.12" rx="14.66" ry="8.14" style="fill:#949499;stroke:#949891;stroke-miterlimit:10"/></clipPath><clipPath id="clip-path-16" transform="translate(-10.25 -10.88)"><ellipse id="SVGID-16" data-name="SVGID" cx="159.18" cy="71.66" rx="14.66" ry="8.14" style="fill:#949499;stroke:#949891;stroke-miterlimit:10"/></clipPath><clipPath id="clip-path-17" transform="translate(-10.25 -10.88)"><ellipse id="SVGID-17" data-name="SVGID" cx="144.52" cy="58.84" rx="14.66" ry="8.14" style="fill:#949499;stroke:#949891;stroke-miterlimit:10"/></clipPath><clipPath id="clip-path-18" transform="translate(-10.25 -10.88)"><ellipse id="SVGID-18" data-name="SVGID" cx="90.61" cy="119.6" rx="14.66" ry="8.14" style="fill:none;stroke:#949891;stroke-miterlimit:10"/></clipPath><clipPath id="clip-path-19" transform="translate(-10.25 -10.88)"><ellipse id="SVGID-19" data-name="SVGID" cx="110.78" cy="106.96" rx="14.66" ry="8.14" style="fill:none;stroke:#949891;stroke-miterlimit:10"/></clipPath><clipPath id="clip-path-20" transform="translate(-10.25 -10.88)"><ellipse id="SVGID-20" data-name="SVGID" cx="118.16" cy="119.22" rx="14.66" ry="8.14" style="fill:none;stroke:#949891;stroke-miterlimit:10"/></clipPath><clipPath id="clip-path-21" transform="translate(-10.25 -10.88)"><ellipse id="SVGID-21" data-name="SVGID" cx="105.27" cy="132.89" rx="14.66" ry="8.14" style="fill:none;stroke:#949891;stroke-miterlimit:10"/></clipPath><clipPath id="clip-path-22" transform="translate(-10.25 -10.88)"><ellipse id="SVGID-22" data-name="SVGID" cx="72.08" cy="94.25" rx="14.66" ry="8.14" style="fill:none;stroke:#949891;stroke-miterlimit:10"/></clipPath><clipPath id="clip-path-23" transform="translate(-10.25 -10.88)"><ellipse id="SVGID-23" data-name="SVGID" cx="82.95" cy="106.96" rx="14.66" ry="8.14" style="fill:none;stroke:#949891;stroke-miterlimit:10"/></clipPath><clipPath id="clip-path-24" transform="translate(-10.25 -10.88)"><ellipse id="SVGID-24" data-name="SVGID" cx="146.36" cy="84.03" rx="14.66" ry="8.14" style="fill:none;stroke:#9b948e;stroke-miterlimit:10"/></clipPath><clipPath id="clip-path-25" transform="translate(-10.25 -10.88)"><ellipse id="SVGID-25" data-name="SVGID" cx="143.41" cy="113.48" rx="14.66" ry="8.14" style="fill:none;stroke:#9b948e;stroke-miterlimit:10"/></clipPath><clipPath id="clip-path-26" transform="translate(-10.25 -10.88)"><ellipse id="SVGID-26" data-name="SVGID" cx="158.07" cy="155.62" rx="14.66" ry="8.14" style="fill:none;stroke:#9b948e;stroke-miterlimit:10"/></clipPath><clipPath id="clip-path-27" transform="translate(-10.25 -10.88)"><ellipse id="SVGID-27" data-name="SVGID" cx="156.01" cy="167.42" rx="14.66" ry="8.14" style="fill:none;stroke:#9b948e;stroke-miterlimit:10"/></clipPath><clipPath id="clip-path-28" transform="translate(-10.25 -10.88)"><ellipse id="SVGID-28" data-name="SVGID" cx="162.64" cy="140.94" rx="14.66" ry="8.14" style="fill:none;stroke:#9b948e;stroke-miterlimit:10"/></clipPath><clipPath id="clip-path-29" transform="translate(-10.25 -10.88)"><ellipse id="SVGID-29" data-name="SVGID" cx="144.54" cy="129.98" rx="14.66" ry="8.14" style="fill:none;stroke:#9b948e;stroke-miterlimit:10"/></clipPath><clipPath id="clip-path-30" transform="translate(-10.25 -10.88)"><ellipse id="SVGID-30" data-name="SVGID" cx="140.1" cy="145.52" rx="14.66" ry="8.14" style="fill:none;stroke:#9b948e;stroke-miterlimit:10"/></clipPath></defs><g style="clip-path:url(#clip-path)"><rect x="140.37" y="100.11" width="36.31" height="22.83" style="fill:#cebfb3"/><polyline points="140.37 122.94 140.37 100.11 175.66 100.11" style="fill:#fde1cd"/><text transform="translate(145.53 113.26)" style="font-size:8px;fill:#1d1d1b;font-family:MyriadPro-Regular, Myriad Pro">MED18</text></g><ellipse id="SVGID-31" data-name="SVGID" cx="157.44" cy="110.74" rx="14.66" ry="8.14" style="fill:none;stroke:#9b948e;stroke-miterlimit:10"/><g style="clip-path:url(#clip-path-2)"><rect x="123.63" y="76.5" width="36.31" height="22.83" style="fill:#cebfb3"/><polyline points="123.63 99.33 123.63 76.5 158.92 76.5" style="fill:#fde1cd"/><text transform="translate(130.89 89.65)" style="font-size:8px;fill:#1d1d1b;font-family:MyriadPro-Regular, Myriad Pro">MED8</text></g><ellipse id="SVGID-32" data-name="SVGID" cx="140.69" cy="87.12" rx="14.66" ry="8.14" style="fill:none;stroke:#9b948e;stroke-miterlimit:10"/><g style="clip-path:url(#clip-path-3)"><rect x="84.53" y="127.58" width="36.31" height="22.83" style="fill:#b2c3c6"/><polyline points="84.53 150.41 84.53 127.58 119.81 127.58" style="fill:#cde8ed"/><text transform="translate(89.68 140.73)" style="font-size:8px;fill:#1d1d1b;font-family:MyriadPro-Regular, Myriad Pro">MED14</text></g><ellipse id="SVGID-33" data-name="SVGID" cx="101.59" cy="138.2" rx="14.66" ry="8.14" style="fill:none;stroke:#8e9698;stroke-miterlimit:10"/><g style="clip-path:url(#clip-path-4)"><rect x="57.38" y="121.43" width="36.31" height="22.83" style="fill:#bec6b9"/><polyline points="57.38 144.26 57.38 121.43 92.67 121.43" style="fill:#e2eed6"/><text transform="translate(62.54 134.58)" style="font-size:8px;fill:#1d1d1b;font-family:MyriadPro-Regular, Myriad Pro">MED24</text></g><ellipse id="SVGID-34" data-name="SVGID" cx="74.44" cy="132.06" rx="14.66" ry="8.14" style="fill:none;stroke:#949891;stroke-miterlimit:10"/><g style="clip-path:url(#clip-path-5)"><rect x="52.37" y="135.72" width="36.31" height="22.83" style="fill:#b2c3c6"/><polyline points="52.37 158.55 52.37 135.72 87.66 135.72" style="fill:#cde8ed"/><text transform="translate(57.53 148.87)" style="font-size:8px;fill:#1d1d1b;font-family:MyriadPro-Regular, Myriad Pro">MED16</text></g><ellipse id="SVGID-35" data-name="SVGID" cx="69.43" cy="146.35" rx="14.66" ry="8.14" style="fill:none;stroke:#8e9698;stroke-miterlimit:10"/><g style="clip-path:url(#clip-path-6)"><rect x="93.62" y="153.25" width="36.31" height="22.83" style="fill:#b2c3c6"/><polyline points="93.62 176.08 93.62 153.25 128.91 153.25" style="fill:#cde8ed"/><text transform="translate(97.83 166.4)" style="font-size:8px;fill:#1d1d1b;font-family:MyriadPro-Regular, Myriad Pro">MED29</text></g><ellipse id="SVGID-36" data-name="SVGID" cx="110.68" cy="163.88" rx="14.66" ry="8.14" style="fill:none;stroke:#8e9698;stroke-miterlimit:10"/><g style="clip-path:url(#clip-path-7)"><rect x="77.96" y="142.15" width="36.31" height="22.83" style="fill:#b2c3c6"/><polyline points="77.96 164.98 77.96 142.15 113.25 142.15" style="fill:#cde8ed"/><text transform="translate(82.17 155.3)" style="font-size:8px;fill:#1d1d1b;font-family:MyriadPro-Regular, Myriad Pro">MED15</text></g><ellipse id="SVGID-37" data-name="SVGID" cx="95.02" cy="152.78" rx="14.66" ry="8.14" style="fill:none;stroke:#8e9698;stroke-miterlimit:10"/><g style="clip-path:url(#clip-path-8)"><rect x="55.64" y="150.3" width="36.31" height="22.83" style="fill:#b2c3c6"/><polyline points="55.65 173.13 55.65 150.3 90.93 150.3" style="fill:#cde8ed"/><text transform="translate(59.85 163.45)" style="font-size:8px;fill:#1d1d1b;font-family:MyriadPro-Regular, Myriad Pro">MED23</text></g><ellipse id="SVGID-38" data-name="SVGID" cx="72.71" cy="160.93" rx="14.66" ry="8.14" style="fill:none;stroke:#8e9698;stroke-miterlimit:10"/><g style="clip-path:url(#clip-path-9)"><rect x="70.6" y="161.56" width="36.31" height="22.83" style="fill:#b2c3c6"/><polyline points="70.6 184.39 70.6 161.56 105.89 161.56" style="fill:#cde8ed"/><text transform="translate(74.8 174.71)" style="font-size:8px;fill:#1d1d1b;font-family:MyriadPro-Regular, Myriad Pro">MED25</text></g><ellipse id="SVGID-39" data-name="SVGID" cx="87.66" cy="172.18" rx="14.66" ry="8.14" style="fill:none;stroke:#8e9698;stroke-miterlimit:10"/><g style="clip-path:url(#clip-path-10)"><rect x="104.39" y="139.63" width="36.31" height="22.83" style="fill:#36a9e1"/><polyline points="104.39 162.46 104.39 139.63 139.68 139.63" style="fill:#79b5dd"/><text transform="translate(108.59 152.78)" style="font-size:8px;fill:#1d1d1b;font-family:MyriadPro-Regular, Myriad Pro">MED27</text></g><ellipse id="SVGID-40" data-name="SVGID" cx="121.45" cy="150.26" rx="14.66" ry="8.14" style="fill:none;stroke:#8e9698;stroke-miterlimit:10"/><g style="clip-path:url(#clip-path-11)"><rect x="98.13" y="72.74" width="36.31" height="22.83" style="fill:#bec6b9"/><polyline points="98.13 95.56 98.13 72.74 133.42 72.74" style="fill:#e2eed6"/><text transform="translate(103.29 85.89)" style="font-size:8px;fill:#1d1d1b;font-family:MyriadPro-Regular, Myriad Pro">MED31</text></g><ellipse id="SVGID-41" data-name="SVGID" cx="115.19" cy="83.36" rx="14.66" ry="8.14" style="fill:none;stroke:#949891;stroke-miterlimit:10"/><g style="clip-path:url(#clip-path-12)"><rect x="71.86" y="72.74" width="36.31" height="22.83" style="fill:#bec6b9"/><polyline points="71.86 95.56 71.86 72.74 107.15 72.74" style="fill:#e2eed6"/><text transform="translate(77.02 85.89)" style="font-size:8px;fill:#1d1d1b;font-family:MyriadPro-Regular, Myriad Pro">MED19</text></g><ellipse id="SVGID-42" data-name="SVGID" cx="88.93" cy="83.36" rx="14.66" ry="8.14" style="fill:none;stroke:#949891;stroke-miterlimit:10"/><g style="clip-path:url(#clip-path-13)"><rect x="58.86" y="59.91" width="36.31" height="22.83" style="fill:#bec6b9"/><polyline points="58.86 82.74 58.86 59.91 94.15 59.91" style="fill:#e2eed6"/><text transform="translate(64.02 73.06)" style="font-size:8px;fill:#1d1d1b;font-family:MyriadPro-Regular, Myriad Pro">MED26</text></g><ellipse id="SVGID-43" data-name="SVGID" cx="75.93" cy="70.53" rx="14.66" ry="8.14" style="fill:none;stroke:#949891;stroke-miterlimit:10"/><ellipse id="SVGID-44" data-name="SVGID" cx="103.75" cy="70.24" rx="14.66" ry="8.14" style="fill:#949499"/><g style="clip-path:url(#clip-path-14)"><rect x="86.69" y="59.61" width="36.31" height="22.83" style="fill:#bebdc8"/><polyline points="86.69 82.44 86.69 59.62 121.98 59.62" style="fill:#e2def0"/><text transform="translate(91.85 72.77)" style="font-size:8px;fill:#1d1d1b;font-family:MyriadPro-Regular, Myriad Pro">MED13</text></g><ellipse id="SVGID-45" data-name="SVGID" cx="103.75" cy="70.24" rx="14.66" ry="8.14" style="fill:none;stroke:#949891;stroke-miterlimit:10"/><ellipse id="SVGID-46" data-name="SVGID" cx="121.45" cy="60.23" rx="14.66" ry="8.14" style="fill:#949499"/><g style="clip-path:url(#clip-path-15)"><rect x="104.39" y="49.61" width="36.31" height="22.83" style="fill:#bebdc8"/><polyline points="104.39 72.43 104.39 49.61 139.68 49.61" style="fill:#e2def0"/><text transform="translate(109.55 62.76)" style="font-size:8px;fill:#1d1d1b;font-family:MyriadPro-Regular, Myriad Pro">MED12</text></g><ellipse id="SVGID-47" data-name="SVGID" cx="121.45" cy="60.23" rx="14.66" ry="8.14" style="fill:none;stroke:#949891;stroke-miterlimit:10"/><ellipse id="SVGID-48" data-name="SVGID" cx="148.94" cy="60.77" rx="14.66" ry="8.14" style="fill:#949499"/><g style="clip-path:url(#clip-path-16)"><rect x="131.87" y="50.15" width="36.31" height="22.83" style="fill:#bebdc8"/><polyline points="131.87 72.97 131.87 50.15 167.16 50.15" style="fill:#e2def0"/><text transform="translate(139.83 63.3)" style="font-size:8px;fill:#1d1d1b;font-family:MyriadPro-Regular, Myriad Pro">CDK8</text></g><ellipse id="SVGID-49" data-name="SVGID" cx="148.94" cy="60.77" rx="14.66" ry="8.14" style="fill:none;stroke:#949891;stroke-miterlimit:10"/><ellipse id="SVGID-50" data-name="SVGID" cx="134.28" cy="47.96" rx="14.66" ry="8.14" style="fill:#949499"/><g style="clip-path:url(#clip-path-17)"><rect x="117.21" y="37.33" width="36.31" height="22.83" style="fill:#bebdc8"/><polyline points="117.21 60.16 117.21 37.33 152.5 37.33" style="fill:#e2def0"/><text transform="translate(125.17 50.48)" style="font-size:8px;fill:#1d1d1b;font-family:MyriadPro-Regular, Myriad Pro"><tspan style="letter-spacing:-0.02001953125em">C</tspan><tspan x="4.48" y="0" style="letter-spacing:-0.010009765625em">y</tspan><tspan x="8.17" y="0">cC</tspan></text></g><ellipse id="SVGID-51" data-name="SVGID" cx="134.28" cy="47.96" rx="14.66" ry="8.14" style="fill:none;stroke:#949891;stroke-miterlimit:10"/><g style="clip-path:url(#clip-path-18)"><rect x="63.3" y="98.09" width="36.31" height="22.83" style="fill:#bec6b9"/><polyline points="63.3 120.92 63.3 98.09 98.59 98.09" style="fill:#e2eed6"/><text transform="translate(70.56 111.24)" style="font-size:8px;fill:#1d1d1b;font-family:MyriadPro-Regular, Myriad Pro">MED9</text></g><ellipse id="SVGID-52" data-name="SVGID" cx="80.36" cy="108.72" rx="14.66" ry="8.14" style="fill:none;stroke:#949891;stroke-miterlimit:10"/><g style="clip-path:url(#clip-path-19)"><rect x="83.47" y="85.45" width="36.31" height="22.83" style="fill:#bec6b9"/><polyline points="83.47 108.28 83.47 85.45 118.76 85.45" style="fill:#e2eed6"/><text transform="translate(90.73 98.6)" style="font-size:8px;fill:#1d1d1b;font-family:MyriadPro-Regular, Myriad Pro">MED4</text></g><ellipse id="SVGID-53" data-name="SVGID" cx="100.53" cy="96.07" rx="14.66" ry="8.14" style="fill:none;stroke:#949891;stroke-miterlimit:10"/><g style="clip-path:url(#clip-path-20)"><rect x="90.85" y="97.71" width="36.31" height="22.83" style="fill:#bec6b9"/><polyline points="90.85 120.54 90.85 97.71 126.14 97.71" style="fill:#e2eed6"/><text transform="translate(98.11 110.86)" style="font-size:8px;fill:#1d1d1b;font-family:MyriadPro-Regular, Myriad Pro">MED7</text></g><ellipse id="SVGID-54" data-name="SVGID" cx="107.92" cy="108.34" rx="14.66" ry="8.14" style="fill:none;stroke:#949891;stroke-miterlimit:10"/><g style="clip-path:url(#clip-path-21)"><rect x="77.96" y="111.38" width="36.31" height="22.83" style="fill:#bec6b9"/><polyline points="77.96 134.21 77.96 111.38 113.25 111.38" style="fill:#e2eed6"/><text transform="translate(85.22 124.53)" style="font-size:8px;fill:#1d1d1b;font-family:MyriadPro-Regular, Myriad Pro">MED1</text></g><ellipse id="SVGID-55" data-name="SVGID" cx="95.02" cy="122.01" rx="14.66" ry="8.14" style="fill:none;stroke:#949891;stroke-miterlimit:10"/><g style="clip-path:url(#clip-path-22)"><rect x="44.77" y="72.74" width="36.31" height="22.83" style="fill:#bec6b9"/><polyline points="44.77 95.56 44.77 72.74 80.06 72.74" style="fill:#e2eed6"/><text transform="translate(49.93 85.89)" style="font-size:8px;fill:#1d1d1b;font-family:MyriadPro-Regular, Myriad Pro">MED21</text></g><ellipse id="SVGID-56" data-name="SVGID" cx="61.84" cy="83.36" rx="14.66" ry="8.14" style="fill:none;stroke:#949891;stroke-miterlimit:10"/><g style="clip-path:url(#clip-path-23)"><rect x="55.64" y="85.45" width="36.31" height="22.83" style="fill:#bec6b9"/><polyline points="55.65 108.28 55.65 85.45 90.93 85.45" style="fill:#e2eed6"/><text transform="translate(60.8 98.6)" style="font-size:8px;fill:#1d1d1b;font-family:MyriadPro-Regular, Myriad Pro">MED10</text></g><ellipse id="SVGID-57" data-name="SVGID" cx="72.71" cy="96.07" rx="14.66" ry="8.14" style="fill:none;stroke:#949891;stroke-miterlimit:10"/><g style="clip-path:url(#clip-path-24)"><rect x="119.05" y="62.52" width="36.31" height="22.83" style="fill:#cebfb3"/><polyline points="119.05 85.35 119.05 62.52 154.34 62.52" style="fill:#fde1cd"/><text transform="translate(124.21 75.67)" style="font-size:8px;fill:#1d1d1b;font-family:MyriadPro-Regular, Myriad Pro">MED20</text></g><ellipse id="SVGID-58" data-name="SVGID" cx="136.11" cy="73.15" rx="14.66" ry="8.14" style="fill:none;stroke:#9b948e;stroke-miterlimit:10"/><g style="clip-path:url(#clip-path-25)"><rect x="116.1" y="91.97" width="36.31" height="22.83" style="fill:#cebfb3"/><polyline points="116.1 114.79 116.1 91.97 151.39 91.97" style="fill:#fde1cd"/><text transform="translate(123.28 105.12)" style="font-size:8px;fill:#1d1d1b;font-family:MyriadPro-Regular, Myriad Pro">MED6</text></g><ellipse id="SVGID-59" data-name="SVGID" cx="133.16" cy="102.59" rx="14.66" ry="8.14" style="fill:none;stroke:#9b948e;stroke-miterlimit:10"/><g style="clip-path:url(#clip-path-26)"><rect x="130.76" y="134.11" width="36.31" height="22.83" style="fill:#cebfb3"/><polyline points="130.76 156.94 130.76 134.11 166.05 134.11" style="fill:#fde1cd"/><text transform="translate(135.89 147.26)" style="font-size:8px;fill:#1d1d1b;font-family:MyriadPro-Regular, Myriad Pro">MED22</text></g><ellipse id="SVGID-60" data-name="SVGID" cx="147.82" cy="144.73" rx="14.66" ry="8.14" style="fill:none;stroke:#9b948e;stroke-miterlimit:10"/><g style="clip-path:url(#clip-path-27)"><rect x="128.7" y="145.91" width="36.31" height="22.83" style="fill:#cebfb3"/><polyline points="128.7 168.74 128.7 145.91 163.99 145.91" style="fill:#fde1cd"/><text transform="translate(133.83 159.06)" style="font-size:8px;fill:#1d1d1b;font-family:MyriadPro-Regular, Myriad Pro">MED28</text></g><ellipse id="SVGID-61" data-name="SVGID" cx="145.76" cy="156.53" rx="14.66" ry="8.14" style="fill:none;stroke:#9b948e;stroke-miterlimit:10"/><g style="clip-path:url(#clip-path-28)"><rect x="135.33" y="119.43" width="36.31" height="22.83" style="fill:#cebfb3"/><polyline points="135.33 142.26 135.33 119.43 170.62 119.43" style="fill:#fde1cd"/><text transform="translate(140.46 132.58)" style="font-size:8px;fill:#1d1d1b;font-family:MyriadPro-Regular, Myriad Pro">MED30</text></g><ellipse id="SVGID-62" data-name="SVGID" cx="152.39" cy="130.06" rx="14.66" ry="8.14" style="fill:none;stroke:#9b948e;stroke-miterlimit:10"/><g style="clip-path:url(#clip-path-29)"><rect x="117.23" y="108.47" width="36.31" height="22.83" style="fill:#cebfb3"/><polyline points="117.23 131.3 117.23 108.47 152.52 108.47" style="fill:#fde1cd"/><text transform="translate(122.36 121.62)" style="font-size:8px;fill:#1d1d1b;font-family:MyriadPro-Regular, Myriad Pro">MED11</text></g><ellipse id="SVGID-63" data-name="SVGID" cx="134.29" cy="119.1" rx="14.66" ry="8.14" style="fill:none;stroke:#9b948e;stroke-miterlimit:10"/><g style="clip-path:url(#clip-path-30)"><rect x="112.79" y="124.01" width="36.31" height="22.83" style="fill:#cebfb3"/><polyline points="112.79 146.83 112.79 124.01 148.08 124.01" style="fill:#fde1cd"/><text transform="translate(117.92 137.16)" style="font-size:8px;fill:#1d1d1b;font-family:MyriadPro-Regular, Myriad Pro">MED17</text></g><ellipse id="SVGID-64" data-name="SVGID" cx="129.85" cy="134.63" rx="14.66" ry="8.14" style="fill:none;stroke:#9b948e;stroke-miterlimit:10"/><path d="M40.35,72.16" transform="translate(-10.25 -10.88)" style="fill:none;stroke:#1d1d1b;stroke-miterlimit:10"/><text transform="translate(166.36 153.25)" style="font-size:12px;fill:#1d1d1b;font-family:MyriadPro-Regular, Myriad Pro">Head</text><polyline points="181.77 67.8 186.55 67.8 186.55 140.53 181.77 140.53" style="fill:none;stroke:#1d1d1b;stroke-miterlimit:10"/><polyline points="30.1 135.17 25.32 135.17 25.32 177.9 30.1 177.9" style="fill:none;stroke:#1d1d1b;stroke-miterlimit:10"/><rect x="7.25" y="153.25" width="27.9" height="14.08" style="fill:#fff"/><text transform="translate(18.36 163.91)" style="font-size:12px;fill:#1d1d1b;font-family:MyriadPro-Regular, Myriad Pro;letter-spacing:-0.06400553385416667em">T<tspan x="5.2" y="0" style="letter-spacing:0.000040690104166666664em">ail</tspan></text><polyline points="30.1 62.85 25.32 62.85 25.32 133.59 30.1 133.59" style="fill:none;stroke:#1d1d1b;stroke-miterlimit:10"/><rect x="7.25" y="91.94" width="27.9" height="14.08" style="fill:#fff"/><text transform="translate(0 102.59)" style="font-size:12px;fill:#1d1d1b;font-family:MyriadPro-Regular, Myriad Pro;letter-spacing:0.012003580729166666em">M<tspan x="9.79" y="0" style="letter-spacing:-0.000040690104166666664em">iddle</tspan></text><text transform="translate(41.41 10.3)" style="font-size:12px;fill:#1d1d1b;font-family:Helvetica">Mediator complex</text><text transform="translate(72.85 37.46)" style="font-size:12px;fill:#1d1d1b;font-family:Helvetica">Kinase</text><polyline points="86.74 58.36 84.97 53.93 152.49 26.88 154.26 31.32" style="fill:none;stroke:#1d1d1b;stroke-miterlimit:10"/></svg>